<svg width="22" height="37" viewBox="0 0 22 37" fill="none" xmlns="http://www.w3.org/2000/svg">
<g clip-path="url(#clip0_1_689)">
<path d="M15.3005 4.58435H4.10524C2.46971 4.58435 1.13851 5.91438 1.13851 7.54654V18.5H0.848693C0.188584 18.5 -0.346649 19.034 -0.346649 19.6936V26.9325C-0.346649 27.5921 0.188584 28.1262 0.848693 28.1262H1.13851V29.4535C1.13851 31.0874 2.46977 32.4157 4.10524 32.4157H19.3808C21.0153 32.4157 22.3466 31.0874 22.3466 29.4535V11.5949L15.3005 4.58435ZM5.36297 25.0884C5.70609 25.0884 6.0865 25.0139 6.3107 24.9248L6.48188 25.8108C6.27323 25.9154 5.8031 26.0274 5.19172 26.0274C3.45334 26.0274 2.55811 24.9475 2.55811 23.5173C2.55811 21.8043 3.78172 20.8508 5.30342 20.8508C5.89288 20.8508 6.34029 20.97 6.5416 21.0738L6.3107 21.9753C6.07921 21.8779 5.75852 21.7889 5.35574 21.7889C4.45276 21.7889 3.75166 22.3328 3.75166 23.4501C3.75166 24.4553 4.34846 25.0884 5.36297 25.0884ZM19.3807 30.6016H4.10524C3.47196 30.6016 2.95621 30.0867 2.95621 29.4535V28.1262H17.1961C17.8564 28.1262 18.3917 27.5921 18.3917 26.9325V19.6936C18.3917 19.034 17.8564 18.5 17.1961 18.5H2.95621V7.54654C2.95621 6.9151 3.47196 6.40019 4.10524 6.40019L14.6209 6.38928V10.2703C14.6209 11.4038 15.542 12.3245 16.6782 12.3245L20.4859 12.3137L20.5287 29.4535C20.5287 30.0867 20.0139 30.6016 19.3807 30.6016ZM8.48377 23.8448C7.64814 23.5547 7.10337 23.0925 7.10337 22.3628C7.10337 21.5057 7.81944 20.8508 9.00576 20.8508C9.57251 20.8508 9.99078 20.9699 10.2887 21.1037L10.0354 22.0199C9.83405 21.9234 9.4759 21.7814 8.98345 21.7814C8.491 21.7814 8.25229 22.0053 8.25229 22.2656C8.25229 22.5858 8.53563 22.7277 9.18481 22.9733C10.0728 23.3008 10.4905 23.763 10.4905 24.4708C10.4905 25.3123 9.84128 26.0274 8.46134 26.0274C7.88685 26.0274 7.31971 25.8782 7.03636 25.7216L7.26773 24.7837C7.5735 24.9402 8.04364 25.0958 8.52834 25.0958C9.05045 25.0958 9.32651 24.8801 9.32651 24.5525C9.32657 24.2397 9.08786 24.0604 8.48377 23.8448ZM12.5143 23.8448C11.6788 23.5547 11.1339 23.0925 11.1339 22.3628C11.1339 21.5057 11.85 20.8508 13.0363 20.8508C13.6036 20.8508 14.0208 20.9699 14.3196 21.1037L14.066 22.0199C13.8645 21.9234 13.5065 21.7814 13.014 21.7814C12.5215 21.7814 12.2828 22.0053 12.2828 22.2656C12.2828 22.5858 12.5662 22.7277 13.2154 22.9733C14.1033 23.3008 14.5212 23.763 14.5212 24.4708C14.5212 25.3123 13.872 26.0274 12.492 26.0274C11.9175 26.0274 11.3503 25.8782 11.0669 25.7216L11.2984 24.7837C11.6041 24.9402 12.0742 25.0958 12.5589 25.0958C13.081 25.0958 13.3571 24.8801 13.3571 24.5525C13.3571 24.2397 13.1183 24.0604 12.5143 23.8448Z" fill="black"/>
</g>
<defs>
<clipPath id="clip0_1_689">
<rect width="22" height="35.5385" fill="white" transform="translate(0 0.730774)"/>
</clipPath>
</defs>
</svg>
