<svg width="32" height="33" viewBox="0 0 32 33" fill="none" xmlns="http://www.w3.org/2000/svg">
<g clip-path="url(#clip0_48605_125)">
<path d="M10.6708 32.5C12.0853 32.5 13.4419 31.9381 14.4421 30.9379C15.4423 29.9377 16.0042 28.5812 16.0042 27.1667V21.8334H10.6708C9.25634 21.8334 7.89979 22.3953 6.89959 23.3955C5.8994 24.3957 5.33749 25.7522 5.33749 27.1667C5.33749 28.5812 5.8994 29.9377 6.89959 30.9379C7.89979 31.9381 9.25634 32.5 10.6708 32.5Z" fill="black"/>
<path d="M5.33749 16.5C5.33749 15.0855 5.8994 13.7289 6.89959 12.7287C7.89979 11.7285 9.25634 11.1666 10.6708 11.1666H16.0042V21.8333H10.6708C9.25634 21.8333 7.89979 21.2714 6.89959 20.2712C5.8994 19.271 5.33749 17.9144 5.33749 16.5Z" fill="black"/>
<path d="M5.33749 5.83333C5.33749 4.41957 5.89882 3.06364 6.89812 2.06357C7.89741 1.0635 9.25289 0.501105 10.6667 0.5L16 0.5V11.1667H10.6708C9.25634 11.1667 7.89979 10.6048 6.89959 9.60457C5.8994 8.60438 5.33749 7.24782 5.33749 5.83333Z" fill="black"/>
<path d="M16.0042 0.5H21.3375C22.752 0.5 24.1085 1.0619 25.1087 2.0621C26.1089 3.06229 26.6708 4.41884 26.6708 5.83333C26.6708 7.24782 26.1089 8.60438 25.1087 9.60457C24.1085 10.6048 22.752 11.1667 21.3375 11.1667H16.0042V0.5Z" fill="black"/>
<path d="M26.6708 16.5C26.6708 17.9144 26.1089 19.271 25.1087 20.2712C24.1085 21.2714 22.752 21.8333 21.3375 21.8333C19.923 21.8333 18.5665 21.2714 17.5663 20.2712C16.5661 19.271 16.0042 17.9144 16.0042 16.5C16.0042 15.0855 16.5661 13.7289 17.5663 12.7287C18.5665 11.7285 19.923 11.1666 21.3375 11.1666C22.752 11.1666 24.1085 11.7285 25.1087 12.7287C26.1089 13.7289 26.6708 15.0855 26.6708 16.5Z" fill="black"/>
</g>
<defs>
<clipPath id="clip0_48605_125">
<rect width="32" height="32" fill="white" transform="translate(0 0.5)"/>
</clipPath>
</defs>
</svg>
