<svg width="34" height="33" viewBox="0 0 34 33" fill="none" xmlns="http://www.w3.org/2000/svg">
<path d="M32.8769 15.0356L18.47 0.622811C18.2727 0.425362 18.0385 0.268732 17.7807 0.161867C17.5229 0.0550033 17.2466 0 16.9675 0C16.6885 0 16.4121 0.0550033 16.1543 0.161867C15.8965 0.268732 15.6623 0.425362 15.4651 0.622811L12.4746 3.61452L16.2694 7.41089C17.1521 7.1014 18.1627 7.31288 18.866 8.01645C19.2007 8.35197 19.4344 8.77491 19.5404 9.23698C19.6463 9.69905 19.6202 10.1816 19.4651 10.6296L23.1228 14.2887C24.0075 13.9834 25.0284 14.1804 25.7348 14.8891C25.9696 15.1241 26.1559 15.4031 26.2829 15.71C26.41 16.017 26.4754 16.3461 26.4753 16.6783C26.4753 17.0106 26.4098 17.3396 26.2827 17.6465C26.1555 17.9535 25.9692 18.2324 25.7343 18.4673C25.4994 18.7022 25.2206 18.8885 24.9137 19.0157C24.6068 19.1428 24.2779 19.2082 23.9458 19.2081C23.6137 19.2081 23.2848 19.1426 22.978 19.0154C22.6712 18.8882 22.3924 18.7018 22.1576 18.4668C21.4151 17.724 21.2315 16.6305 21.6069 15.7155L18.1957 12.3028V21.2831C18.4433 21.4057 18.6696 21.5673 18.866 21.7618C19.1008 21.9967 19.287 22.2756 19.4141 22.5825C19.5412 22.8894 19.6066 23.2184 19.6066 23.5506C19.6066 23.8828 19.5412 24.2118 19.4141 24.5187C19.287 24.8257 19.1008 25.1045 18.866 25.3395C18.6311 25.5744 18.3524 25.7607 18.0456 25.8878C17.7388 26.015 17.4099 26.0804 17.0779 26.0804C16.7458 26.0804 16.4169 26.015 16.1101 25.8878C15.8033 25.7607 15.5246 25.5744 15.2897 25.3395C15.0547 25.1047 14.8681 24.8259 14.7409 24.5189C14.6136 24.212 14.5481 23.8829 14.5481 23.5506C14.5481 23.2183 14.6136 22.8893 14.7409 22.5823C14.8681 22.2754 15.0547 21.9965 15.2897 21.7618C15.5341 21.5183 15.8053 21.3337 16.1178 21.2099V12.146C15.8167 12.0222 15.5341 11.8396 15.2897 11.5941C14.9347 11.2393 14.6933 10.7868 14.5963 10.2942C14.4993 9.80163 14.5512 9.29132 14.7453 8.82834L11.002 5.08561L1.12307 14.9582C0.925551 15.1556 0.768853 15.39 0.661941 15.648C0.555029 15.906 0.5 16.1825 0.5 16.4618C0.5 16.7411 0.555029 17.0177 0.661941 17.2757C0.768853 17.5337 0.925551 17.768 1.12307 17.9654L15.531 32.3772C15.7283 32.5746 15.9625 32.7313 16.2203 32.8381C16.4781 32.945 16.7545 33 17.0335 33C17.3126 33 17.5889 32.945 17.8467 32.8381C18.1045 32.7313 18.3387 32.5746 18.536 32.3772L32.8769 18.0531C33.0744 17.8557 33.2311 17.6214 33.3381 17.3634C33.445 17.1054 33.5 16.8288 33.5 16.5495C33.5 16.2702 33.445 15.9937 33.3381 15.7357C33.2311 15.4777 33.0744 15.2433 32.8769 15.0459" fill="black"/>
</svg>
